<?xml version="1.0" encoding="UTF-8" standalone="no"?>
<!-- Created with Inkscape (http://www.inkscape.org/) -->

<svg
   xmlns:dc="http://purl.org/dc/elements/1.1/"
   xmlns:cc="http://creativecommons.org/ns#"
   xmlns:rdf="http://www.w3.org/1999/02/22-rdf-syntax-ns#"
   xmlns:svg="http://www.w3.org/2000/svg"
   xmlns="http://www.w3.org/2000/svg"
   version="1.1"
   width="568.78302"
   height="961.79089"
   id="svg2">
  <title
     id="title3002">Waysome Logo</title>
  <defs
     id="defs4" />
  <metadata
     id="metadata7">
    <rdf:RDF>
      <cc:Work
         rdf:about="">
        <dc:format>image/svg+xml</dc:format>
        <dc:type
           rdf:resource="http://purl.org/dc/dcmitype/StillImage" />
        <dc:title>Waysome Logo</dc:title>
        <dc:creator>
          <cc:Agent>
            <dc:title>Julian Ganz</dc:title>
          </cc:Agent>
        </dc:creator>
      </cc:Work>
    </rdf:RDF>
  </metadata>
  <g
     transform="translate(-93.688286,-47.454237)"
     id="layer1">
    <path
       d="m 341.9575,346.77381 50.57119,1.20408 C 451.63364,302.07086 435.00173,41.298685 555.07891,77.060846 675.15609,112.82301 477.15753,379.7097 474.40583,530.99739 471.64917,682.55853 583.07104,939.00996 470.79361,951.21982 358.51618,963.42968 373.76481,875.22157 363.63087,659.83349 358.20115,878.18668 363.13556,962.95305 252.8559,948.81167 142.57624,934.67029 267.66847,668.91578 267.30481,529.79332 266.90761,377.84423 86.885867,110.10157 202.28472,79.468995 317.68356,48.836418 308.85334,293.82032 341.9575,346.77381 z"
       id="path2985"
       style="fill:#e0c090;fill-opacity:1;stroke:#000000;stroke-width:2.5;stroke-linecap:butt;stroke-linejoin:round;stroke-miterlimit:4;stroke-opacity:1;stroke-dasharray:none" />
    <rect
       width="521.36481"
       height="471.99771"
       x="120.40757"
       y="509.32404"
       id="rect3760"
       style="fill:none" />
    <rect
       width="556.28302"
       height="428.651"
       x="99.938286"
       y="574.34412"
       id="rect3765"
       style="fill:none" />
    <path
       d="m 474.78125,552.65625 c -80.32626,13.24483 -118.50988,15.65298 -208.46875,0 -11.14607,143.41604 -117.98676,382.7537 -13.46875,396.15625 110.27966,14.14138 105.35153,-70.61556 110.78125,-288.96875 10.13394,215.38808 -5.12118,303.58486 107.15625,291.375 107.10193,-11.64704 10.72663,-245.47108 4,-398.5625 z"
       id="path3793"
       style="fill:#202040;fill-opacity:1;stroke:#000000;stroke-width:2.5;stroke-linecap:butt;stroke-linejoin:round;stroke-miterlimit:4;stroke-opacity:1;stroke-dasharray:none" />
    <path
       d="m 178.98152,231.17092 c 29.83583,94.96466 79.577,233.70513 80.97298,260.44296 1.39597,26.73782 4.00504,36.38785 0.41067,59.19347 77.91811,13.84096 140.09766,13.52518 218.23489,1.55674 -2.45358,-29.96023 -2.47712,-19.02666 4.45384,-57.97473 6.93095,-38.94806 54.20483,-166.24434 88.3211,-262.01436 -49.16841,-5.81797 -83.01143,-12.48735 -129.62561,-27.67083 -12.08853,50.76195 -27.01941,126.02275 -49.21814,143.26458 l -50.5625,-1.1875 c -12.28481,-19.6508 -22.41419,-95.86501 -31.64348,-144.50814 -47.6126,14.74106 -80.75122,21.81944 -131.34375,28.89781 z"
       id="path3788"
       style="fill:#202020;fill-opacity:1;stroke:#000000;stroke-width:2.5;stroke-linecap:butt;stroke-linejoin:round;stroke-miterlimit:4;stroke-opacity:1;stroke-dasharray:none" />
    <path
       d="m 512.93627,285.96799 a 104.15255,106.5607 0 1 1 -208.3051,0 104.15255,106.5607 0 1 1 208.3051,0 z"
       transform="translate(-36.122272,-37.326347)"
       id="path2988"
       style="fill:#e0c090;fill-opacity:1;stroke:#000000;stroke-width:2.5;stroke-linecap:butt;stroke-linejoin:round;stroke-miterlimit:4;stroke-opacity:1;stroke-dasharray:none" />
    <path
       d="m 361.84929,237.98841 c -0.39774,-44.64309 -39.24657,-43.58534 -37.03634,-0.42571"
       id="path3798"
       style="fill:none;stroke:#000000;stroke-width:2.5;stroke-linecap:butt;stroke-linejoin:round;stroke-miterlimit:4;stroke-opacity:1;stroke-dasharray:none" />
    <path
       d="m 386.28191,237.95557 c 0.39774,-44.64309 39.24657,-43.58534 37.03634,-0.42571"
       id="path3798-3"
       style="fill:none;stroke:#000000;stroke-width:2.5;stroke-linecap:butt;stroke-linejoin:round;stroke-miterlimit:4;stroke-opacity:1;stroke-dasharray:none" />
    <path
       d="m 326.94148,276.72756 c 19.58244,43.70575 73.96887,36.03374 93.22941,-0.4257 -42.21187,7.47501 -50.51298,7.49387 -93.22941,0.4257 z"
       id="path3818"
       style="fill:#800000;fill-opacity:1;stroke:#000000;stroke-width:2.5;stroke-linecap:butt;stroke-linejoin:round;stroke-miterlimit:4;stroke-opacity:1;stroke-dasharray:none" />
    <path
       d="m 290.7434,176.41061 c 43.59421,-49.08168 115.42352,-51.3522 162.6616,-0.4606 z"
       id="path3055"
       style="fill:#201000;fill-opacity:1;stroke:#000000;stroke-width:2.5;stroke-linecap:butt;stroke-linejoin:round;stroke-miterlimit:4;stroke-opacity:1;stroke-dasharray:none" />
    <path
       d="m 275.5018,211.22308 c 24.85405,-35.63733 47.66309,-26.78873 69.04259,-25.53696 21.3795,1.25176 27.9246,3.22103 27.43829,-18.90882 -0.68495,-31.16934 -14.7208,-31.13773 -36.2528,-23.68723 -21.532,7.4505 -57.16827,32.62837 -60.22808,68.13301 z"
       id="path3820"
       style="fill:#201000;fill-opacity:1;stroke:#000000;stroke-width:2.5;stroke-linecap:butt;stroke-linejoin:round;stroke-miterlimit:4;stroke-opacity:1;stroke-dasharray:none" />
    <path
       d="m 469.87822,211.22308 c -24.85405,-35.63733 -47.66309,-26.78873 -69.04259,-25.53696 -21.3795,1.25176 -27.9246,3.22103 -27.43829,-18.90882 0.68495,-31.16934 14.7208,-31.13773 36.2528,-23.68723 21.532,7.4505 57.16827,32.62837 60.22808,68.13301 z"
       id="path3053"
       style="fill:#201000;fill-opacity:1;stroke:#000000;stroke-width:2.5;stroke-linecap:butt;stroke-linejoin:round;stroke-miterlimit:4;stroke-opacity:1;stroke-dasharray:none" />
  </g>
</svg>
